<?xml version="1.0" encoding="UTF-8" standalone="no"?>
<!-- Created with Inkscape (http://www.inkscape.org/) -->

<svg
   xmlns:dc="http://purl.org/dc/elements/1.1/"
   xmlns:cc="http://creativecommons.org/ns#"
   xmlns:rdf="http://www.w3.org/1999/02/22-rdf-syntax-ns#"
   xmlns:svg="http://www.w3.org/2000/svg"
   xmlns="http://www.w3.org/2000/svg"
   xmlns:sodipodi="http://sodipodi.sourceforge.net/DTD/sodipodi-0.dtd"
   xmlns:inkscape="http://www.inkscape.org/namespaces/inkscape"
   width="100"
   height="20"
   id="svg2"
   version="1.1"
   inkscape:version="0.48.3.1 r9886"
   sodipodi:docname="enemy_move_horizontally2.svg"
   inkscape:export-filename="C:\Users\drk\Dropbox\projects\space_ship_game\images\enemy_move_horizontally.png"
   inkscape:export-xdpi="90"
   inkscape:export-ydpi="90">
  <defs
     id="defs4" />
  <sodipodi:namedview
     id="base"
     pagecolor="#ffffff"
     bordercolor="#666666"
     borderopacity="1.0"
     inkscape:pageopacity="0.0"
     inkscape:pageshadow="2"
     inkscape:zoom="8"
     inkscape:cx="103.0637"
     inkscape:cy="10.866772"
     inkscape:document-units="px"
     inkscape:current-layer="layer1"
     showgrid="true"
     inkscape:window-width="1366"
     inkscape:window-height="706"
     inkscape:window-x="-8"
     inkscape:window-y="-8"
     inkscape:window-maximized="1"
     showguides="true"
     inkscape:guide-bbox="true">
    <inkscape:grid
       type="xygrid"
       id="grid2985"
       empspacing="5"
       visible="true"
       enabled="true"
       snapvisiblegridlinesonly="true"
       spacingx="0.1px"
       spacingy="0.1px" />
    <sodipodi:guide
       orientation="1,0"
       position="20,35"
       id="guide3801" />
    <sodipodi:guide
       orientation="1,0"
       position="40,25"
       id="guide3803" />
    <sodipodi:guide
       orientation="1,0"
       position="60,20"
       id="guide3805" />
    <sodipodi:guide
       orientation="1,0"
       position="80,17.5"
       id="guide3820" />
  </sodipodi:namedview>
  <metadata
     id="metadata7">
    <rdf:RDF>
      <cc:Work
         rdf:about="">
        <dc:format>image/svg+xml</dc:format>
        <dc:type
           rdf:resource="http://purl.org/dc/dcmitype/StillImage" />
        <dc:title></dc:title>
      </cc:Work>
    </rdf:RDF>
  </metadata>
  <g
     inkscape:label="Layer 1"
     inkscape:groupmode="layer"
     id="layer1"
     transform="translate(0,-1032.3622)">
    <text
       xml:space="preserve"
       style="font-size:8px;font-style:normal;font-weight:normal;line-height:125%;letter-spacing:0px;word-spacing:0px;fill:#000000;fill-opacity:1;stroke:none;font-family:Sans"
       x="64.949234"
       y="1018.8774"
       id="text3795"
       sodipodi:linespacing="125%"><tspan
         sodipodi:role="line"
         id="tspan3797"
         x="64.949234"
         y="1018.8774"
         style="font-size:6px">Normal</tspan><tspan
         sodipodi:role="line"
         x="64.949234"
         y="1026.3774"
         id="tspan3799"
         style="font-size:6px">state</tspan></text>
    <path
       style="fill:none;stroke:#000000;stroke-width:1px;stroke-linecap:butt;stroke-linejoin:miter;stroke-opacity:1"
       d="m 60,1027.3622 0,-15"
       id="path3807"
       inkscape:connector-curvature="0" />
    <text
       xml:space="preserve"
       style="font-size:8px;font-style:normal;font-weight:normal;line-height:125%;letter-spacing:0px;word-spacing:0px;fill:#000000;fill-opacity:1;stroke:none;font-family:Sans"
       x="5"
       y="1022.3622"
       id="text3809"
       sodipodi:linespacing="125%"><tspan
         sodipodi:role="line"
         id="tspan3811"
         x="5"
         y="1022.3622">Spawn state</tspan></text>
    <path
       style="fill:none;stroke:#ff0000;stroke-width:1px;stroke-linecap:butt;stroke-linejoin:miter;stroke-opacity:1"
       d="m 70,1032.8622 c 0,0 -3.5,0 -6.5,0 -3,0 -3,4 -3,4 l 0,14.5 2.5,-3.5 3.5,3.5 3.5,-3.5 3.5,3.5 3.5,-3.5 2.5,3.5 0,-8 0,-6.5 c 0,0 0,-4 -3,-4 z"
       id="path3778"
       inkscape:connector-curvature="0" />
    <path
       inkscape:connector-curvature="0"
       id="path3814"
       d="m 50,1032.8622 c 0,0 -3.5,0 -6.5,0 -3,0 -3,4 -3,4 l 0,14.5 2.5,-3.5 3.5,3.5 3.5,-3.5 3.5,3.5 3.5,-3.5 2.5,3.5 0,-8 0,-6.5 c 0,0 0,-4 -3,-4 z"
       style="fill:none;stroke:#ff0000;stroke-width:1px;stroke-linecap:butt;stroke-linejoin:miter;stroke-opacity:0.75132273" />
    <path
       style="fill:none;stroke:#ff0000;stroke-width:1px;stroke-linecap:butt;stroke-linejoin:miter;stroke-opacity:0.50264551"
       d="m 30,1032.8622 c 0,0 -3.5,0 -6.5,0 -3,0 -3,4 -3,4 l 0,14.5 2.5,-3.5 3.5,3.5 3.5,-3.5 3.5,3.5 3.5,-3.5 2.5,3.5 0,-8 0,-6.5 c 0,0 0,-4 -3,-4 z"
       id="path3816"
       inkscape:connector-curvature="0" />
    <path
       inkscape:connector-curvature="0"
       id="path3818"
       d="m 10,1032.8622 c 0,0 -3.5,0 -6.5,0 -3,0 -3,4 -3,4 l 0,14.5 2.5,-3.5 3.5,3.5 3.5,-3.5 3.5,3.5 3.5,-3.5 2.5,3.5 0,-8 0,-6.5 c 0,0 0,-4 -3,-4 z"
       style="fill:none;stroke:#ff0000;stroke-width:1px;stroke-linecap:butt;stroke-linejoin:miter;stroke-opacity:0.25925927" />
    <path
       style="fill:none;stroke:#ff0000;stroke-width:1px;stroke-linecap:butt;stroke-linejoin:miter;stroke-opacity:1"
       d="m 80.5,19 4.7,-3.5 0,3.5 4.8,-3.5 0,3.5 4.7,-3.5 0,3.5 4.8,-3.5 0,-12.5 c 0,0 0,-2.5 -3,-2.5 -3,0 -11,0 -11,0 0,0 -4.911299,0.23398041 -5,6 -0.0887,5.76602 0,12.5 0,12.5"
       id="path3830"
       inkscape:connector-curvature="0"
       transform="translate(0,1032.3622)" />
  </g>
</svg>
