<?xml version="1.0" encoding="UTF-8" standalone="no"?>
<!-- Created with Inkscape (http://www.inkscape.org/) -->

<svg
   xmlns:dc="http://purl.org/dc/elements/1.1/"
   xmlns:cc="http://creativecommons.org/ns#"
   xmlns:rdf="http://www.w3.org/1999/02/22-rdf-syntax-ns#"
   xmlns:svg="http://www.w3.org/2000/svg"
   xmlns="http://www.w3.org/2000/svg"
   xmlns:sodipodi="http://sodipodi.sourceforge.net/DTD/sodipodi-0.dtd"
   xmlns:inkscape="http://www.inkscape.org/namespaces/inkscape"
   width="100"
   height="20"
   id="svg2"
   version="1.1"
   inkscape:version="0.48.4 r9939"
   sodipodi:docname="enemy_rotate_around.svg"
   inkscape:export-filename="C:\Users\drk\Dropbox\projects\space_ship_game\images\enemy_rotate_around.png"
   inkscape:export-xdpi="90"
   inkscape:export-ydpi="90">
  <defs
     id="defs4" />
  <sodipodi:namedview
     id="base"
     pagecolor="#ffffff"
     bordercolor="#666666"
     borderopacity="1.0"
     inkscape:pageopacity="0.0"
     inkscape:pageshadow="2"
     inkscape:zoom="15.839192"
     inkscape:cx="32.752348"
     inkscape:cy="16.873958"
     inkscape:document-units="px"
     inkscape:current-layer="layer1"
     showgrid="true"
     inkscape:window-width="1920"
     inkscape:window-height="1005"
     inkscape:window-x="-9"
     inkscape:window-y="-9"
     inkscape:window-maximized="1"
     showguides="true"
     inkscape:guide-bbox="true">
    <inkscape:grid
       type="xygrid"
       id="grid4099"
       empspacing="5"
       visible="true"
       enabled="true"
       snapvisiblegridlinesonly="true"
       spacingx="0.2px"
       spacingy="0.2px" />
    <sodipodi:guide
       orientation="1,0"
       position="40,16.5"
       id="guide4877" />
    <sodipodi:guide
       orientation="1,0"
       position="20,7"
       id="guide2987" />
    <sodipodi:guide
       orientation="1,0"
       position="60,8"
       id="guide2989" />
    <sodipodi:guide
       orientation="1,0"
       position="80,7"
       id="guide2991" />
    <sodipodi:guide
       orientation="0,1"
       position="85.2,20"
       id="guide2993" />
  </sodipodi:namedview>
  <metadata
     id="metadata7">
    <rdf:RDF>
      <cc:Work
         rdf:about="">
        <dc:format>image/svg+xml</dc:format>
        <dc:type
           rdf:resource="http://purl.org/dc/dcmitype/StillImage" />
        <dc:title></dc:title>
      </cc:Work>
    </rdf:RDF>
  </metadata>
  <g
     inkscape:label="Layer 1"
     inkscape:groupmode="layer"
     id="layer1"
     transform="translate(0,-1032.3622)">
    <text
       xml:space="preserve"
       style="font-size:8px;font-style:normal;font-weight:normal;line-height:125%;letter-spacing:0px;word-spacing:0px;fill:#000000;fill-opacity:1;stroke:none;font-family:Sans"
       x="14.107143"
       y="-8.8392859"
       id="text3769"
       sodipodi:linespacing="125%"
       transform="translate(0,1032.3622)"><tspan
         sodipodi:role="line"
         id="tspan3771"
         x="14.107143"
         y="-8.8392859">Spawn</tspan></text>
    <text
       xml:space="preserve"
       style="font-size:8px;font-style:normal;font-weight:normal;line-height:125%;letter-spacing:0px;word-spacing:0px;fill:#000000;fill-opacity:1;stroke:none;font-family:Sans"
       x="70"
       y="1023.3622"
       id="text3773"
       sodipodi:linespacing="125%"><tspan
         sodipodi:role="line"
         id="tspan3775"
         x="70"
         y="1023.3622">Main</tspan></text>
    <path
       style="fill:none;stroke:#000000;stroke-width:1px;stroke-linecap:butt;stroke-linejoin:miter;stroke-opacity:1"
       d="m 60,-6 0,-11"
       id="path3777"
       inkscape:connector-curvature="0"
       transform="translate(0,1032.3622)" />
    <path
       sodipodi:type="star"
       style="fill:#c96400;fill-opacity:0.23921569;stroke:none"
       id="path2998"
       sodipodi:sides="6"
       sodipodi:cx="-26"
       sodipodi:cy="-34"
       sodipodi:r1="21.260292"
       sodipodi:r2="10.630146"
       sodipodi:arg1="0.85196633"
       sodipodi:arg2="1.3755651"
       inkscape:flatsided="false"
       inkscape:rounded="1.63"
       inkscape:randomized="0"
       d="m -12,-18 c -16.16065,14.1405697 9.1279965,-9.737563 -11.937822,-5.571797 -21.065819,4.165767 11.407833,16.6214024 -8.918585,9.696153 C -53.182824,-20.800893 -19.859431,-10.839349 -34,-27 c -14.140569,-16.160651 -8.69064,18.1901744 -12.856407,-2.875644 -4.165767,-21.065819 3.86898,12.773858 10.794229,-7.552559 C -29.136929,-57.754621 -56.160651,-35.859431 -40,-50 c 16.16065,-14.14057 -9.127996,9.737563 11.937822,5.571797 21.0658189,-4.165767 -11.407833,-16.621402 8.918585,-9.696153 C 1.1828242,-47.199107 -32.140569,-57.160651 -18,-41 c 14.1405695,16.160651 8.6906399,-18.190174 12.8564069,2.875644 4.16576696,21.065819 -3.8689795,-12.773858 -10.7942289,7.552559 C -22.863071,-10.245379 4.1606509,-32.140569 -12,-18 z"
       transform="matrix(0.45379598,0,0,0.45275691,21.7951,1057.7402)"
       inkscape:transform-center-x="0.26947769"
       inkscape:transform-center-y="-0.65972253" />
    <path
       inkscape:transform-center-y="-0.65972253"
       inkscape:transform-center-x="0.26947769"
       transform="matrix(0.45379598,0,0,0.45275691,41.808747,1057.8665)"
       d="m -12,-18 c -16.16065,14.1405697 9.1279965,-9.737563 -11.937822,-5.571797 -21.065819,4.165767 11.407833,16.6214024 -8.918585,9.696153 C -53.182824,-20.800893 -19.859431,-10.839349 -34,-27 c -14.140569,-16.160651 -8.69064,18.1901744 -12.856407,-2.875644 -4.165767,-21.065819 3.86898,12.773858 10.794229,-7.552559 C -29.136929,-57.754621 -56.160651,-35.859431 -40,-50 c 16.16065,-14.14057 -9.127996,9.737563 11.937822,5.571797 21.0658189,-4.165767 -11.407833,-16.621402 8.918585,-9.696153 C 1.1828242,-47.199107 -32.140569,-57.160651 -18,-41 c 14.1405695,16.160651 8.6906399,-18.190174 12.8564069,2.875644 4.16576696,21.065819 -3.8689795,-12.773858 -10.7942289,7.552559 C -22.863071,-10.245379 4.1606509,-32.140569 -12,-18 z"
       inkscape:randomized="0"
       inkscape:rounded="1.63"
       inkscape:flatsided="false"
       sodipodi:arg2="1.3755651"
       sodipodi:arg1="0.85196633"
       sodipodi:r2="10.630146"
       sodipodi:r1="21.260292"
       sodipodi:cy="-34"
       sodipodi:cx="-26"
       sodipodi:sides="6"
       id="path3768"
       style="fill:#c96400;fill-opacity:0.58039218;stroke:none"
       sodipodi:type="star" />
    <path
       sodipodi:type="star"
       style="fill:#c96400;fill-opacity:0.71372551;stroke:none"
       id="path3770"
       sodipodi:sides="6"
       sodipodi:cx="-26"
       sodipodi:cy="-34"
       sodipodi:r1="21.260292"
       sodipodi:r2="10.630146"
       sodipodi:arg1="0.85196633"
       sodipodi:arg2="1.3755651"
       inkscape:flatsided="false"
       inkscape:rounded="1.63"
       inkscape:randomized="0"
       d="m -12,-18 c -16.16065,14.1405697 9.1279965,-9.737563 -11.937822,-5.571797 -21.065819,4.165767 11.407833,16.6214024 -8.918585,9.696153 C -53.182824,-20.800893 -19.859431,-10.839349 -34,-27 c -14.140569,-16.160651 -8.69064,18.1901744 -12.856407,-2.875644 -4.165767,-21.065819 3.86898,12.773858 10.794229,-7.552559 C -29.136929,-57.754621 -56.160651,-35.859431 -40,-50 c 16.16065,-14.14057 -9.127996,9.737563 11.937822,5.571797 21.0658189,-4.165767 -11.407833,-16.621402 8.918585,-9.696153 C 1.1828242,-47.199107 -32.140569,-57.160651 -18,-41 c 14.1405695,16.160651 8.6906399,-18.190174 12.8564069,2.875644 4.16576696,21.065819 -3.8689795,-12.773858 -10.7942289,7.552559 C -22.863071,-10.245379 4.1606509,-32.140569 -12,-18 z"
       transform="matrix(0.45379598,0,0,0.45275691,61.822394,1057.8665)"
       inkscape:transform-center-x="0.26947769"
       inkscape:transform-center-y="-0.65972253" />
    <path
       inkscape:transform-center-y="-0.65972253"
       inkscape:transform-center-x="0.26947769"
       transform="matrix(0.45379598,0,0,0.45275691,81.836041,1057.8665)"
       d="m -12,-18 c -16.16065,14.1405697 9.1279965,-9.737563 -11.937822,-5.571797 -21.065819,4.165767 11.407833,16.6214024 -8.918585,9.696153 C -53.182824,-20.800893 -19.859431,-10.839349 -34,-27 c -14.140569,-16.160651 -8.69064,18.1901744 -12.856407,-2.875644 -4.165767,-21.065819 3.86898,12.773858 10.794229,-7.552559 C -29.136929,-57.754621 -56.160651,-35.859431 -40,-50 c 16.16065,-14.14057 -9.127996,9.737563 11.937822,5.571797 21.0658189,-4.165767 -11.407833,-16.621402 8.918585,-9.696153 C 1.1828242,-47.199107 -32.140569,-57.160651 -18,-41 c 14.1405695,16.160651 8.6906399,-18.190174 12.8564069,2.875644 4.16576696,21.065819 -3.8689795,-12.773858 -10.7942289,7.552559 C -22.863071,-10.245379 4.1606509,-32.140569 -12,-18 z"
       inkscape:randomized="0"
       inkscape:rounded="1.63"
       inkscape:flatsided="false"
       sodipodi:arg2="1.3755651"
       sodipodi:arg1="0.85196633"
       sodipodi:r2="10.630146"
       sodipodi:r1="21.260292"
       sodipodi:cy="-34"
       sodipodi:cx="-26"
       sodipodi:sides="6"
       id="path3772"
       style="fill:#c96400;fill-opacity:1;stroke:none"
       sodipodi:type="star" />
    <path
       sodipodi:type="star"
       style="fill:#c96400;fill-opacity:1;stroke:none"
       id="path3774"
       sodipodi:sides="6"
       sodipodi:cx="-26"
       sodipodi:cy="-34"
       sodipodi:r1="21.260292"
       sodipodi:r2="10.630146"
       sodipodi:arg1="0.85196633"
       sodipodi:arg2="1.3755651"
       inkscape:flatsided="false"
       inkscape:rounded="1.63"
       inkscape:randomized="0"
       d="m -12,-18 c -16.16065,14.1405697 9.1279965,-9.737563 -11.937822,-5.571797 -21.065819,4.165767 11.407833,16.6214024 -8.918585,9.696153 C -53.182824,-20.800893 -19.859431,-10.839349 -34,-27 c -14.140569,-16.160651 -8.69064,18.1901744 -12.856407,-2.875644 -4.165767,-21.065819 3.86898,12.773858 10.794229,-7.552559 C -29.136929,-57.754621 -56.160651,-35.859431 -40,-50 c 16.16065,-14.14057 -9.127996,9.737563 11.937822,5.571797 21.0658189,-4.165767 -11.407833,-16.621402 8.918585,-9.696153 C 1.1828242,-47.199107 -32.140569,-57.160651 -18,-41 c 14.1405695,16.160651 8.6906399,-18.190174 12.8564069,2.875644 4.16576696,21.065819 -3.8689795,-12.773858 -10.7942289,7.552559 C -22.863071,-10.245379 4.1606509,-32.140569 -12,-18 z"
       transform="matrix(0,0.45379598,-0.45275691,0,74.702577,1054.2197)"
       inkscape:transform-center-x="-0.65972273"
       inkscape:transform-center-y="-0.26948307" />
  </g>
</svg>
