<?xml version="1.0" encoding="UTF-8" standalone="no"?>
<!-- Created with Inkscape (http://www.inkscape.org/) -->

<svg
   xmlns:dc="http://purl.org/dc/elements/1.1/"
   xmlns:cc="http://creativecommons.org/ns#"
   xmlns:rdf="http://www.w3.org/1999/02/22-rdf-syntax-ns#"
   xmlns:svg="http://www.w3.org/2000/svg"
   xmlns="http://www.w3.org/2000/svg"
   xmlns:sodipodi="http://sodipodi.sourceforge.net/DTD/sodipodi-0.dtd"
   xmlns:inkscape="http://www.inkscape.org/namespaces/inkscape"
   width="200"
   height="50"
   id="svg2"
   version="1.1"
   inkscape:version="0.48.3.1 r9886"
   sodipodi:docname="enemy_rocks.svg"
   inkscape:export-filename="C:\Users\drk\Dropbox\projects\space_ship_game\images\enemy_rocks.png"
   inkscape:export-xdpi="90"
   inkscape:export-ydpi="90">
  <defs
     id="defs4" />
  <sodipodi:namedview
     id="base"
     pagecolor="#ffffff"
     bordercolor="#666666"
     borderopacity="1.0"
     inkscape:pageopacity="0.0"
     inkscape:pageshadow="2"
     inkscape:zoom="5.6"
     inkscape:cx="92.963957"
     inkscape:cy="34.344667"
     inkscape:document-units="px"
     inkscape:current-layer="layer1"
     showgrid="false"
     inkscape:window-width="1366"
     inkscape:window-height="706"
     inkscape:window-x="-8"
     inkscape:window-y="-8"
     inkscape:window-maximized="1"
     showguides="true"
     inkscape:guide-bbox="true">
    <inkscape:grid
       type="xygrid"
       id="grid2985"
       empspacing="5"
       visible="true"
       enabled="true"
       snapvisiblegridlinesonly="true"
       spacingx="0.1px"
       spacingy="0.1px" />
    <sodipodi:guide
       orientation="1,0"
       position="50,24"
       id="guide2984" />
    <sodipodi:guide
       orientation="1,0"
       position="100,60"
       id="guide2991" />
    <sodipodi:guide
       orientation="1,0"
       position="150,76"
       id="guide2993" />
  </sodipodi:namedview>
  <metadata
     id="metadata7">
    <rdf:RDF>
      <cc:Work
         rdf:about="">
        <dc:format>image/svg+xml</dc:format>
        <dc:type
           rdf:resource="http://purl.org/dc/dcmitype/StillImage" />
        <dc:title></dc:title>
      </cc:Work>
    </rdf:RDF>
  </metadata>
  <g
     inkscape:label="Layer 1"
     inkscape:groupmode="layer"
     id="layer1"
     transform="translate(0,-1002.3622)">
    <path
       style="fill:#000000;fill-opacity:0.20105818;stroke:#ffffff;stroke-width:0.53547412px;stroke-linecap:butt;stroke-linejoin:miter;stroke-opacity:1"
       d="m 24.258271,1017.9625 c -1.070949,0 -4.283793,0 -6.42569,1.0709 -2.141896,1.0711 -4.283792,3.2129 -5.35474,4.2838 -1.070949,1.071 0,4.2839 0,5.3548 0,1.0709 0,1.0709 0,3.2128 0,2.142 -1.070949,4.2838 0,5.3548 1.070948,1.0709 1.070948,3.2128 2.141895,3.2128 1.070949,0 4.283794,0 6.42569,1.0711 2.141896,1.0708 2.141896,1.0708 4.283794,1.0708 2.141896,0 5.354741,-2.1419 6.425689,-2.1419 1.070948,0 3.212844,-1.0709 3.212844,-2.1419 0,-1.0709 0,-2.1419 0,-3.2129 0,-1.0708 1.070949,-5.3547 1.070949,-7.4965 0,-2.1419 0,-3.2129 0,-4.2839 0,-1.0709 -1.070949,-3.2127 -2.141897,-3.2127 -1.070948,0 0,-1.0711 -2.141896,-1.0711 -2.141897,0 -3.212845,-1.0709 -4.283793,-1.0709 -1.070949,0 -3.212845,0 -3.212845,0 z"
       id="path2991"
       inkscape:connector-curvature="0" />
    <text
       xml:space="preserve"
       style="font-size:8px;font-style:normal;font-weight:normal;line-height:125%;letter-spacing:0px;word-spacing:0px;fill:#000000;fill-opacity:1;stroke:none;font-family:Sans"
       x="116"
       y="992.36218"
       id="text2986"
       sodipodi:linespacing="125%"><tspan
         sodipodi:role="line"
         id="tspan2988"
         x="116"
         y="992.36218">Spawn</tspan></text>
    <text
       xml:space="preserve"
       style="font-size:8px;font-style:normal;font-weight:normal;line-height:125%;letter-spacing:0px;word-spacing:0px;fill:#000000;fill-opacity:1;stroke:none;font-family:Sans"
       x="168"
       y="994.36218"
       id="text2990"
       sodipodi:linespacing="125%"><tspan
         sodipodi:role="line"
         id="tspan2992"
         x="168"
         y="994.36218">Main</tspan></text>
    <path
       style="fill:none;stroke:#000000;stroke-width:0.93541437px;stroke-linecap:butt;stroke-linejoin:miter;stroke-opacity:1"
       d="m 150,998.3622 0,-14"
       id="path2994"
       inkscape:connector-curvature="0" />
    <path
       inkscape:connector-curvature="0"
       id="path2996"
       d="m 74.657211,1013.3835 c -1.441641,0 -5.766565,0 -8.649849,1.4416 -2.883282,1.4417 -5.766564,4.3249 -7.208206,5.7667 -1.441641,1.4415 0,5.7664 0,7.2082 0,1.4416 0,1.4416 0,4.3249 0,2.8833 -1.441641,5.7666 0,7.2081 1.441642,1.4417 1.441642,4.3249 2.883283,4.3249 1.441641,0 5.766566,0 8.649849,1.4417 2.883282,1.4417 2.883282,1.4417 5.766565,1.4417 2.883284,0 7.208206,-2.8834 8.649848,-2.8834 1.441642,0 4.324924,-1.4416 4.324924,-2.8832 0,-1.4417 0,-2.8833 0,-4.325 0,-1.4415 1.441642,-7.2081 1.441642,-10.0915 0,-2.8831 0,-4.3249 0,-5.7664 0,-1.4418 -1.441642,-4.325 -2.883283,-4.325 -1.441641,0 0,-1.4417 -2.883283,-1.4417 -2.883283,0 -4.324925,-1.4416 -5.766564,-1.4416 -1.441643,0 -4.324926,0 -4.324926,0 z"
       style="fill:#000000;fill-opacity:0.42328042;stroke:#ffffff;stroke-width:0.72082061px;stroke-linecap:butt;stroke-linejoin:miter;stroke-opacity:1" />
    <path
       style="fill:#000000;fill-opacity:0.6825397;stroke:#ffffff;stroke-width:0.78034115px;stroke-linecap:butt;stroke-linejoin:miter;stroke-opacity:1"
       d="m 125.44144,1011.6616 c -1.56067,0 -6.24273,0 -9.36409,1.5606 -3.12137,1.5607 -6.24273,4.6821 -7.80341,6.2428 -1.56068,1.5607 0,6.2427 0,7.8034 0,1.5607 0,1.5607 0,4.682 0,3.1215 -1.56068,6.2428 0,7.8035 1.56068,1.5607 1.56068,4.682 3.12136,4.682 1.56068,0 6.24273,0 9.36409,1.5606 3.12138,1.5608 3.12138,1.5608 6.24274,1.5608 3.12136,0 7.8034,-3.1214 9.36409,-3.1214 1.56067,0 4.68205,-1.5607 4.68205,-3.1213 0,-1.5607 0,-3.1214 0,-4.682 0,-1.5607 1.56068,-7.8035 1.56068,-10.9249 0,-3.1213 0,-4.682 0,-6.2427 0,-1.5607 -1.56068,-4.6821 -3.12137,-4.6821 -1.56069,0 0,-1.5607 -3.12136,-1.5607 -3.12137,0 -4.68205,-1.5606 -6.24273,-1.5606 -1.56068,0 -4.68205,0 -4.68205,0 z"
       id="path2995"
       inkscape:connector-curvature="0" />
    <path
       inkscape:connector-curvature="0"
       id="path2997"
       d="m 176,1004.3622 c -2,0 -8,0 -12,2 -4,2 -8,6 -10,8 -2,2 0,8 0,10 0,2 0,2 0,6 0,4 -2,8 0,10 2,2 2,6 4,6 2,0 8,0 12,2 4,2 4,2 8,2 4,0 10,-4 12,-4 2,0 6,-2 6,-4 0,-2 0,-4 0,-6 0,-2 2,-10 2,-14 0,-4 0,-6 0,-8 0,-2 -2,-6 -4,-6 -2,0 0,-2 -4,-2 -4,0 -6,-2 -8,-2 -2,0 -6,0 -6,0 z"
       style="fill:#000000;fill-opacity:1;stroke:#ffffff;stroke-width:1px;stroke-linecap:butt;stroke-linejoin:miter;stroke-opacity:1" />
  </g>
</svg>
