<?xml version="1.0" encoding="UTF-8" standalone="no"?>
<!-- Created with Inkscape (http://www.inkscape.org/) -->

<svg
   xmlns:dc="http://purl.org/dc/elements/1.1/"
   xmlns:cc="http://creativecommons.org/ns#"
   xmlns:rdf="http://www.w3.org/1999/02/22-rdf-syntax-ns#"
   xmlns:svg="http://www.w3.org/2000/svg"
   xmlns="http://www.w3.org/2000/svg"
   xmlns:sodipodi="http://sodipodi.sourceforge.net/DTD/sodipodi-0.dtd"
   xmlns:inkscape="http://www.inkscape.org/namespaces/inkscape"
   width="128"
   height="128"
   id="svg2"
   version="1.1"
   inkscape:version="0.48.4 r9939"
   sodipodi:docname="icon128.svg"
   inkscape:export-filename="C:\Users\drk\Dropbox\projects\space_ship_game\images\icon128.png"
   inkscape:export-xdpi="90"
   inkscape:export-ydpi="90">
  <defs
     id="defs4" />
  <sodipodi:namedview
     id="base"
     pagecolor="#000000"
     bordercolor="#666666"
     borderopacity="1.0"
     inkscape:pageopacity="1"
     inkscape:pageshadow="2"
     inkscape:zoom="3.959798"
     inkscape:cx="58.738834"
     inkscape:cy="61.958251"
     inkscape:document-units="px"
     inkscape:current-layer="layer1"
     showgrid="false"
     inkscape:window-width="1098"
     inkscape:window-height="757"
     inkscape:window-x="752"
     inkscape:window-y="85"
     inkscape:window-maximized="0">
    <inkscape:grid
       type="xygrid"
       id="grid2996"
       empspacing="5"
       visible="true"
       enabled="true"
       snapvisiblegridlinesonly="true" />
  </sodipodi:namedview>
  <metadata
     id="metadata7">
    <rdf:RDF>
      <cc:Work
         rdf:about="">
        <dc:format>image/svg+xml</dc:format>
        <dc:type
           rdf:resource="http://purl.org/dc/dcmitype/StillImage" />
        <dc:title></dc:title>
      </cc:Work>
    </rdf:RDF>
  </metadata>
  <g
     inkscape:label="Layer 1"
     inkscape:groupmode="layer"
     id="layer1"
     transform="translate(0,-924.36218)">
    <path
       style="fill:none;stroke:#ff0000;stroke-width:1.18474329px;stroke-linecap:butt;stroke-linejoin:miter;stroke-opacity:1"
       d="m 78.448799,965.17103 5.568293,-4.1466 0,4.1466 5.686773,-4.1466 0,4.1466 5.56829,-4.1466 0,4.1466 5.686775,-4.1466 0,-14.80929 c 0,0 0,-2.96186 -3.554235,-2.96186 -3.55423,0 -13.03218,0 -13.03218,0 0,0 -5.81863,0.27723 -5.923716,7.10846 -0.105087,6.83123 0,14.80929 0,14.80929"
       id="path3830"
       inkscape:connector-curvature="0" />
    <path
       inkscape:connector-curvature="0"
       id="path2992"
       d="m 89.405109,1014.8059 5.568298,-4.1466 0,4.1466 5.686773,-4.1466 0,4.1466 5.5683,-4.1466 0,4.1466 5.68677,-4.1466 0,-14.80927 c 0,0 0,-2.96187 -3.55423,-2.96187 -3.55423,0 -13.032193,0 -13.032193,0 0,0 -5.818632,0.2772 -5.923718,7.10847 -0.105087,6.83117 0,14.80927 0,14.80927"
       style="fill:none;stroke:#ff0000;stroke-width:1.18474329px;stroke-linecap:butt;stroke-linejoin:miter;stroke-opacity:1" />
    <path
       style="fill:none;stroke:#ff0000;stroke-width:1.18474329px;stroke-linecap:butt;stroke-linejoin:miter;stroke-opacity:1"
       d="m 53.220894,1035.6185 5.568293,-4.1466 0,4.1466 5.686768,-4.1466 0,4.1466 5.5683,-4.1466 0,4.1466 5.68677,-4.1466 0,-14.8093 c 0,0 0,-2.9619 -3.55423,-2.9619 -3.55423,0 -13.032185,0 -13.032185,0 0,0 -5.81863,0.2772 -5.923716,7.1085 -0.105087,6.8312 0,14.8093 0,14.8093"
       id="path3005"
       inkscape:connector-curvature="0" />
    <g
       id="g3818"
       transform="matrix(0.85716733,-0.5150381,0.5150381,0.85716733,-473.3407,177.1303)">
      <path
         inkscape:export-ydpi="90"
         inkscape:export-xdpi="90"
         inkscape:connector-curvature="0"
         id="path2987-1"
         d="m 24.821429,957.53182 -10,5 0,-10 z"
         style="fill:#78ff37;fill-opacity:1;stroke:none" />
      <path
         inkscape:connector-curvature="0"
         id="path3816"
         d="m 38.652211,957.36601 8.805555,0"
         style="fill:none;stroke:#518bff;stroke-width:2.24300003;stroke-linecap:butt;stroke-linejoin:miter;stroke-miterlimit:4;stroke-opacity:1;stroke-dasharray:none" />
    </g>
  </g>
</svg>
